<?xml version="1.0" encoding="utf-8"?>
<!-- Generator: Adobe Illustrator 21.0.2, SVG Export Plug-In . SVG Version: 6.00 Build 0)  -->
<svg version="1.1" xmlns="http://www.w3.org/2000/svg" xmlns:xlink="http://www.w3.org/1999/xlink" x="0px" y="0px"
	 viewBox="0 0 320 320" style="enable-background:new 0 0 320 320;" xml:space="preserve">
<style type="text/css">
	.st0{stroke:#000000;stroke-miterlimit:10;}
	.st1{fill:none;}
</style>
<g id="Characters">
	<g id="Numbers">
		<g id="_x31_6">
			<circle class="st0" cx="160.5" cy="138.1" r="12.8"/>
			<circle class="st0" cx="160.5" cy="101.3" r="12.8"/>
			<circle class="st0" cx="160.5" cy="64.5" r="12.8"/>
			<circle class="st0" cx="160.5" cy="256.5" r="12.8"/>
			<circle class="st0" cx="160.5" cy="219.7" r="12.8"/>
			<circle class="st0" cx="160.5" cy="182.9" r="12.8"/>
			<circle class="st0" cx="37.3" cy="138.1" r="12.8"/>
			<circle class="st0" cx="37.3" cy="101.3" r="12.8"/>
			<circle class="st0" cx="37.3" cy="64.5" r="12.8"/>
			<circle class="st0" cx="37.3" cy="256.5" r="12.8"/>
			<circle class="st0" cx="37.3" cy="219.7" r="12.8"/>
			<circle class="st0" cx="37.3" cy="182.9" r="12.8"/>
			<circle class="st0" cx="283.7" cy="256.5" r="12.8"/>
			<circle class="st0" cx="283.7" cy="219.7" r="12.8"/>
			<circle class="st0" cx="283.7" cy="182.9" r="12.8"/>
			<circle class="st0" cx="256.5" cy="160.5" r="12.8"/>
			<circle class="st0" cx="219.7" cy="160.5" r="12.8"/>
			<circle class="st0" cx="182.9" cy="160.5" r="12.8"/>
			<circle class="st0" cx="256.5" cy="283.7" r="12.8"/>
			<circle class="st0" cx="219.7" cy="283.7" r="12.8"/>
			<circle class="st0" cx="182.9" cy="283.7" r="12.8"/>
		</g>
	</g>
</g>
<g id="Corner_Markers">
	<rect x="7" y="304" class="st1" width="1" height="1"/>
</g>
</svg>
