<?xml version="1.0" encoding="utf-8"?>
<!-- Generator: Adobe Illustrator 21.0.2, SVG Export Plug-In . SVG Version: 6.00 Build 0)  -->
<svg version="1.1" xmlns="http://www.w3.org/2000/svg" xmlns:xlink="http://www.w3.org/1999/xlink" x="0px" y="0px"
	 viewBox="0 0 320 320" style="enable-background:new 0 0 320 320;" xml:space="preserve">
<style type="text/css">
	.st0{stroke:#000000;stroke-miterlimit:10;}
	.st1{fill:none;}
</style>
<g id="Characters">
	<g id="Letters">
		<g id="M">
			
				<ellipse transform="matrix(0.7071 -0.7071 0.7071 0.7071 -34.7156 173.1891)" class="st0" cx="191.7" cy="128.5" rx="12.8" ry="12.8"/>
			
				<ellipse transform="matrix(0.7071 -0.7071 0.7071 0.7071 -6.4813 185.3528)" class="st0" cx="220.5" cy="100.5" rx="12.8" ry="12.8"/>
			
				<ellipse transform="matrix(0.7071 -0.7071 0.7071 0.7071 19.9187 196.2881)" class="st0" cx="246.9" cy="74.1" rx="12.8" ry="12.8"/>
			<circle class="st0" cx="37.3" cy="138.1" r="12.8"/>
			<circle class="st0" cx="37.3" cy="101.3" r="12.8"/>
			<circle class="st0" cx="37.3" cy="64.5" r="12.8"/>
			<circle class="st0" cx="37.3" cy="256.5" r="12.8"/>
			<circle class="st0" cx="37.3" cy="219.7" r="12.8"/>
			<circle class="st0" cx="37.3" cy="182.9" r="12.8"/>
			<circle class="st0" cx="283.7" cy="138.1" r="12.8"/>
			<circle class="st0" cx="283.7" cy="101.3" r="12.8"/>
			<circle class="st0" cx="283.7" cy="64.5" r="12.8"/>
			<circle class="st0" cx="283.7" cy="256.5" r="12.8"/>
			<circle class="st0" cx="283.7" cy="219.7" r="12.8"/>
			<circle class="st0" cx="283.7" cy="182.9" r="12.8"/>
			
				<ellipse transform="matrix(0.7071 -0.7071 0.7071 0.7071 -53.7921 128.7343)" class="st0" cx="128.5" cy="129.3" rx="12.8" ry="12.8"/>
			
				<ellipse transform="matrix(0.7071 -0.7071 0.7071 0.7071 -41.6285 100.5)" class="st0" cx="100.5" cy="100.5" rx="12.8" ry="12.8"/>
			<ellipse transform="matrix(0.7071 -0.7071 0.7071 0.7071 -30.6932 74.1)" class="st0" cx="74.1" cy="74.1" rx="12.8" ry="12.8"/>
		</g>
	</g>
</g>
<g id="Corner_Markers">
	<rect x="7" y="304" class="st1" width="1" height="1"/>
</g>
</svg>
