<?xml version="1.0" encoding="utf-8"?>
<!-- Generator: Adobe Illustrator 21.0.2, SVG Export Plug-In . SVG Version: 6.00 Build 0)  -->
<svg version="1.1" xmlns="http://www.w3.org/2000/svg" xmlns:xlink="http://www.w3.org/1999/xlink" x="0px" y="0px"
	 viewBox="0 0 320 320" style="enable-background:new 0 0 320 320;" xml:space="preserve">
<style type="text/css">
	.st0{stroke:#000000;stroke-miterlimit:10;}
	.st1{fill:none;}
</style>
<g id="Characters">
	<g id="Letters">
		<g id="Q">
			<circle class="st0" cx="37.3" cy="138.1" r="12.8"/>
			<circle class="st0" cx="37.3" cy="101.3" r="12.8"/>
			<circle class="st0" cx="37.3" cy="64.5" r="12.8"/>
			<circle class="st0" cx="37.3" cy="256.5" r="12.8"/>
			<circle class="st0" cx="37.3" cy="219.7" r="12.8"/>
			<circle class="st0" cx="37.3" cy="182.9" r="12.8"/>
			<circle class="st0" cx="283.7" cy="138.1" r="12.8"/>
			<circle class="st0" cx="283.7" cy="101.3" r="12.8"/>
			<circle class="st0" cx="283.7" cy="64.5" r="12.8"/>
			<circle class="st0" cx="283.7" cy="256.5" r="12.8"/>
			<circle class="st0" cx="283.7" cy="219.7" r="12.8"/>
			<circle class="st0" cx="283.7" cy="182.9" r="12.8"/>
			
				<ellipse transform="matrix(0.7071 -0.7071 0.7071 0.7071 -103.1664 247.9343)" class="st0" cx="247.7" cy="248.5" rx="12.8" ry="12.8"/>
			
				<ellipse transform="matrix(0.7071 -0.7071 0.7071 0.7071 -92.4655 220.9686)" class="st0" cx="220.5" cy="222.1" rx="12.8" ry="12.8"/>
			
				<ellipse transform="matrix(0.7071 -0.7071 0.7071 0.7071 -80.6332 193.5343)" class="st0" cx="193.3" cy="194.1" rx="12.8" ry="12.8"/>
			<circle class="st0" cx="138.1" cy="37.3" r="12.8"/>
			<circle class="st0" cx="101.3" cy="37.3" r="12.8"/>
			<circle class="st0" cx="64.5" cy="37.3" r="12.8"/>
			<circle class="st0" cx="256.5" cy="37.3" r="12.8"/>
			<circle class="st0" cx="219.7" cy="37.3" r="12.8"/>
			<circle class="st0" cx="182.9" cy="37.3" r="12.8"/>
			<circle class="st0" cx="138.1" cy="283.7" r="12.8"/>
			<circle class="st0" cx="101.3" cy="283.7" r="12.8"/>
			<circle class="st0" cx="64.5" cy="283.7" r="12.8"/>
			<circle class="st0" cx="256.5" cy="283.7" r="12.8"/>
			<circle class="st0" cx="219.7" cy="283.7" r="12.8"/>
			<circle class="st0" cx="182.9" cy="283.7" r="12.8"/>
		</g>
	</g>
</g>
<g id="Corner_Markers">
	<rect x="7" y="304" class="st1" width="1" height="1"/>
</g>
</svg>
